<svg id="Capa_1" data-name="Capa 1" xmlns="http://www.w3.org/2000/svg" viewBox="0 0 800 800"><defs><style>.cls-1{fill:#fff;}</style></defs><title>PYMO</title><path class="cls-1" d="M179.3,409.52H54.52A9.52,9.52,0,0,0,45,419.05v10.24a9.52,9.52,0,0,0,9.52,9.53H80.24a5.18,5.18,0,0,1,3.91,1.73,4.86,4.86,0,0,1,1.25,3.77c-2,19.2-8.6,46.22-28.33,65.94a9.54,9.54,0,0,0,0,13.48L64.32,531a9.54,9.54,0,0,0,13.47,0C105,503.78,113,468.31,115,443.37c.42-5.3,10.28-4.89,10.28.61v79a9.52,9.52,0,0,0,9.52,9.52h10.25a9.51,9.51,0,0,0,9.52-9.52V444a5.16,5.16,0,0,1,5.16-5.16H179.3a9.52,9.52,0,0,0,9.53-9.53V419.05A9.52,9.52,0,0,0,179.3,409.52Z"/><path class="cls-1" d="M116.92,379.3a56.53,56.53,0,1,0-56.54-56.53A56.59,56.59,0,0,0,116.92,379.3Zm0-84.5a28,28,0,1,1-28,28A28,28,0,0,1,116.92,294.8Z"/><path class="cls-1" d="M295.51,410.85A45.15,45.15,0,0,1,313,414.12a36.54,36.54,0,0,1,13.11,9.06,39.76,39.76,0,0,1,8,13.46,46.84,46.84,0,0,1,2.76,16,44,44,0,0,1-2.76,15.62,37.58,37.58,0,0,1-8,12.85A35.19,35.19,0,0,1,313,489.61a48.31,48.31,0,0,1-17.51,3H271v29.68q0,4.49-2.5,6.9a9.36,9.36,0,0,1-6.81,2.42H248.57c-3,0-5.29-.8-6.9-2.42s-2.41-3.91-2.41-6.9V420.16q0-4.49,2.41-6.9t6.9-2.41Zm-3.8,56.59a12,12,0,0,0,9.49-4.4,15.22,15.22,0,0,0,3.8-10.27,15.45,15.45,0,0,0-3.8-10.43,12,12,0,0,0-9.49-4.4H271v29.5Z"/><path class="cls-1" d="M394.55,531.63c-3,0-5.3-.8-6.91-2.42s-2.41-3.91-2.41-6.9V482.8L343.3,422.23q-3.1-4.65-1.38-8t7.42-3.36h16.74a12.58,12.58,0,0,1,11.21,6.21l23.81,38.82,24-38.82a12.33,12.33,0,0,1,11.21-6.21h16.57c3.79,0,6.24,1.12,7.33,3.36s.55,4.92-1.64,8l-41.58,60v40q0,4.49-2.42,6.9c-1.61,1.62-3.91,2.42-6.9,2.42Z"/><path class="cls-1" d="M478.23,531.63q-4.65,0-7-2.59c-1.55-1.72-2.21-4.14-2-7.24l9.49-102.15q.86-8.81,9.66-8.8h14.32q7.77,0,10.7,7.24l27.44,68,27.6-68q2.94-7.24,10.7-7.24h14.32a9.64,9.64,0,0,1,6.73,2.33,8.74,8.74,0,0,1,2.76,6.47l9.49,102.15c.35,3.1-.26,5.52-1.81,7.24s-3.88,2.59-7,2.59H590.73a10,10,0,0,1-6.9-2.33,8.78,8.78,0,0,1-2.76-6.47l-4.66-55.91L554.32,523q-2.76,7.43-10.69,7.42h-5.35q-7.95,0-10.7-7.42l-22.09-56.08-4.65,55.91a9.39,9.39,0,0,1-2.94,6.47,9.94,9.94,0,0,1-6.9,2.33Z"/><path class="cls-1" d="M690.29,533.53a68.83,68.83,0,0,1-26.22-4.92,60.88,60.88,0,0,1-20.62-13.54,59.92,59.92,0,0,1-13.12-20,64.31,64.31,0,0,1,0-47.62,59.92,59.92,0,0,1,13.12-20,60.73,60.73,0,0,1,20.62-13.54,72.35,72.35,0,0,1,52.45,0,61.91,61.91,0,0,1,20.71,13.54,59.38,59.38,0,0,1,13.2,20,64.31,64.31,0,0,1,0,47.62,59.38,59.38,0,0,1-13.2,20,62.07,62.07,0,0,1-20.71,13.54A68.84,68.84,0,0,1,690.29,533.53Zm0-27.44a33.13,33.13,0,0,0,13.38-2.67,29.84,29.84,0,0,0,10.44-7.51,34.38,34.38,0,0,0,6.64-11.21,40,40,0,0,0,0-26.92,34.53,34.53,0,0,0-6.64-11.22,29.94,29.94,0,0,0-10.44-7.5,33,33,0,0,0-13.38-2.68,36.61,36.61,0,0,0-11,1.81,28.15,28.15,0,0,0-10.44,6.13,35.54,35.54,0,0,0-8,11.22,36.08,36.08,0,0,0-3.28,15.7,39,39,0,0,0,2.33,13.46,34.38,34.38,0,0,0,6.64,11.21,29.84,29.84,0,0,0,10.44,7.51A33.08,33.08,0,0,0,690.29,506.09Z"/></svg>